<svg id="visual" viewBox="0 0 900 600" width="900" height="600" xmlns="http://www.w3.org/2000/svg" xmlns:xlink="http://www.w3.org/1999/xlink" version="1.1"><rect x="0" y="0" width="900" height="600" fill="#001122"></rect><defs><linearGradient id="grad1_0" x1="33.3%" y1="100%" x2="100%" y2="0%"><stop offset="20%" stop-color="#009473" stop-opacity="1"></stop><stop offset="80%" stop-color="#009473" stop-opacity="1"></stop></linearGradient></defs><defs><linearGradient id="grad1_1" x1="33.3%" y1="100%" x2="100%" y2="0%"><stop offset="20%" stop-color="#009473" stop-opacity="1"></stop><stop offset="80%" stop-color="#008173" stop-opacity="1"></stop></linearGradient></defs><defs><linearGradient id="grad1_2" x1="33.3%" y1="100%" x2="100%" y2="0%"><stop offset="20%" stop-color="#006d6f" stop-opacity="1"></stop><stop offset="80%" stop-color="#008173" stop-opacity="1"></stop></linearGradient></defs><defs><linearGradient id="grad1_3" x1="33.3%" y1="100%" x2="100%" y2="0%"><stop offset="20%" stop-color="#006d6f" stop-opacity="1"></stop><stop offset="80%" stop-color="#005966" stop-opacity="1"></stop></linearGradient></defs><defs><linearGradient id="grad1_4" x1="33.3%" y1="100%" x2="100%" y2="0%"><stop offset="20%" stop-color="#004659" stop-opacity="1"></stop><stop offset="80%" stop-color="#005966" stop-opacity="1"></stop></linearGradient></defs><defs><linearGradient id="grad1_5" x1="33.3%" y1="100%" x2="100%" y2="0%"><stop offset="20%" stop-color="#004659" stop-opacity="1"></stop><stop offset="80%" stop-color="#003349" stop-opacity="1"></stop></linearGradient></defs><defs><linearGradient id="grad1_6" x1="33.3%" y1="100%" x2="100%" y2="0%"><stop offset="20%" stop-color="#002236" stop-opacity="1"></stop><stop offset="80%" stop-color="#003349" stop-opacity="1"></stop></linearGradient></defs><defs><linearGradient id="grad1_7" x1="33.3%" y1="100%" x2="100%" y2="0%"><stop offset="20%" stop-color="#002236" stop-opacity="1"></stop><stop offset="80%" stop-color="#001122" stop-opacity="1"></stop></linearGradient></defs><defs><linearGradient id="grad2_0" x1="0%" y1="100%" x2="66.7%" y2="0%"><stop offset="20%" stop-color="#009473" stop-opacity="1"></stop><stop offset="80%" stop-color="#009473" stop-opacity="1"></stop></linearGradient></defs><defs><linearGradient id="grad2_1" x1="0%" y1="100%" x2="66.7%" y2="0%"><stop offset="20%" stop-color="#008173" stop-opacity="1"></stop><stop offset="80%" stop-color="#009473" stop-opacity="1"></stop></linearGradient></defs><defs><linearGradient id="grad2_2" x1="0%" y1="100%" x2="66.7%" y2="0%"><stop offset="20%" stop-color="#008173" stop-opacity="1"></stop><stop offset="80%" stop-color="#006d6f" stop-opacity="1"></stop></linearGradient></defs><defs><linearGradient id="grad2_3" x1="0%" y1="100%" x2="66.7%" y2="0%"><stop offset="20%" stop-color="#005966" stop-opacity="1"></stop><stop offset="80%" stop-color="#006d6f" stop-opacity="1"></stop></linearGradient></defs><defs><linearGradient id="grad2_4" x1="0%" y1="100%" x2="66.7%" y2="0%"><stop offset="20%" stop-color="#005966" stop-opacity="1"></stop><stop offset="80%" stop-color="#004659" stop-opacity="1"></stop></linearGradient></defs><defs><linearGradient id="grad2_5" x1="0%" y1="100%" x2="66.7%" y2="0%"><stop offset="20%" stop-color="#003349" stop-opacity="1"></stop><stop offset="80%" stop-color="#004659" stop-opacity="1"></stop></linearGradient></defs><defs><linearGradient id="grad2_6" x1="0%" y1="100%" x2="66.7%" y2="0%"><stop offset="20%" stop-color="#003349" stop-opacity="1"></stop><stop offset="80%" stop-color="#002236" stop-opacity="1"></stop></linearGradient></defs><defs><linearGradient id="grad2_7" x1="0%" y1="100%" x2="66.7%" y2="0%"><stop offset="20%" stop-color="#001122" stop-opacity="1"></stop><stop offset="80%" stop-color="#002236" stop-opacity="1"></stop></linearGradient></defs><g transform="translate(900, 600)"><path d="M-540.8 0C-485.7 -36.2 -430.5 -72.4 -409.6 -109.7C-388.6 -147 -401.8 -185.4 -407 -235C-412.3 -284.6 -409.5 -345.5 -382.4 -382.4C-355.3 -419.4 -303.8 -432.3 -259 -448.6C-214.2 -464.9 -176.1 -484.4 -134.1 -500.3C-92 -516.3 -46 -528.6 0 -540.8L0 0Z" fill="#001a2c"></path><path d="M-473.2 0C-425 -31.7 -376.7 -63.4 -358.4 -96C-340 -128.7 -351.6 -162.2 -356.2 -205.6C-360.7 -249 -358.4 -302.3 -334.6 -334.6C-310.9 -366.9 -265.8 -378.3 -226.6 -392.5C-187.4 -406.8 -154.1 -423.9 -117.3 -437.8C-80.5 -451.7 -40.3 -462.5 0 -473.2L0 0Z" fill="#002b40"></path><path d="M-405.6 0C-364.3 -27.2 -322.9 -54.3 -307.2 -82.3C-291.4 -110.3 -301.3 -139 -305.3 -176.3C-309.2 -213.5 -307.2 -259.1 -286.8 -286.8C-266.5 -314.5 -227.8 -324.2 -194.3 -336.5C-160.7 -348.7 -132.1 -363.3 -100.6 -375.3C-69 -387.2 -34.5 -396.4 0 -405.6L0 0Z" fill="#003d52"></path><path d="M-338 0C-303.5 -22.6 -269.1 -45.3 -256 -68.6C-242.9 -91.9 -251.1 -115.9 -254.4 -146.9C-257.7 -177.9 -256 -215.9 -239 -239C-222.1 -262.1 -189.9 -270.2 -161.9 -280.4C-133.9 -290.5 -110.1 -302.8 -83.8 -312.7C-57.5 -322.7 -28.8 -330.3 0 -338L0 0Z" fill="#005060"></path><path d="M-270.4 0C-242.8 -18.1 -215.3 -36.2 -204.8 -54.9C-194.3 -73.5 -200.9 -92.7 -203.5 -117.5C-206.1 -142.3 -204.8 -172.7 -191.2 -191.2C-177.7 -209.7 -151.9 -216.2 -129.5 -224.3C-107.1 -232.4 -88.1 -242.2 -67 -250.2C-46 -258.1 -23 -264.3 0 -270.4L0 0Z" fill="#00636b"></path><path d="M-202.8 0C-182.1 -13.6 -161.4 -27.2 -153.6 -41.2C-145.7 -55.1 -150.7 -69.5 -152.6 -88.1C-154.6 -106.7 -153.6 -129.6 -143.4 -143.4C-133.2 -157.3 -113.9 -162.1 -97.1 -168.2C-80.3 -174.3 -66 -181.7 -50.3 -187.6C-34.5 -193.6 -17.3 -198.2 0 -202.8L0 0Z" fill="#007772"></path><path d="M-135.2 0C-121.4 -9.1 -107.6 -18.1 -102.4 -27.4C-97.1 -36.8 -100.4 -46.3 -101.8 -58.8C-103.1 -71.2 -102.4 -86.4 -95.6 -95.6C-88.8 -104.8 -75.9 -108.1 -64.8 -112.2C-53.6 -116.2 -44 -121.1 -33.5 -125.1C-23 -129.1 -11.5 -132.1 0 -135.2L0 0Z" fill="#008a73"></path><path d="M-67.6 0C-60.7 -4.5 -53.8 -9.1 -51.2 -13.7C-48.6 -18.4 -50.2 -23.2 -50.9 -29.4C-51.5 -35.6 -51.2 -43.2 -47.8 -47.8C-44.4 -52.4 -38 -54 -32.4 -56.1C-26.8 -58.1 -22 -60.6 -16.8 -62.5C-11.5 -64.5 -5.8 -66.1 0 -67.6L0 0Z" fill="#009473"></path></g><g transform="translate(0, 0)"><path d="M540.8 0C550.4 54.4 559.9 108.8 522.4 140C484.9 171.2 400.4 179.1 370.7 214C340.9 248.9 365.8 310.8 353.6 353.6C341.3 396.3 292 420.1 246 426.1C200 432.1 157.4 420.4 117 436.6C76.5 452.8 38.3 496.8 0 540.8L0 0Z" fill="#001a2c"></path><path d="M473.2 0C481.6 47.6 489.9 95.2 457.1 122.5C424.3 149.8 350.4 156.7 324.3 187.2C298.3 217.8 320.1 271.9 309.4 309.4C298.7 346.8 255.5 367.6 215.3 372.8C175 378.1 137.7 367.9 102.4 382C67 396.2 33.5 434.7 0 473.2L0 0Z" fill="#002b40"></path><path d="M405.6 0C412.8 40.8 419.9 81.6 391.8 105C363.7 128.4 300.3 134.3 278 160.5C255.7 186.7 274.3 233.1 265.2 265.2C256 297.3 219 315 184.5 319.6C150 324.1 118.1 315.3 87.7 327.4C57.4 339.6 28.7 372.6 0 405.6L0 0Z" fill="#003d52"></path><path d="M338 0C344 34 349.9 68 326.5 87.5C303.1 107 250.3 111.9 231.7 133.7C213 155.6 228.6 194.2 221 221C213.3 247.7 182.5 262.5 153.8 266.3C125 270.1 98.4 262.8 73.1 272.9C47.8 283 23.9 310.5 0 338L0 0Z" fill="#005060"></path><path d="M270.4 0C275.2 27.2 279.9 54.4 261.2 70C242.5 85.6 200.2 89.5 185.3 107C170.4 124.5 182.9 155.4 176.8 176.8C170.7 198.2 146 210 123 213C100 216.1 78.7 210.2 58.5 218.3C38.3 226.4 19.1 248.4 0 270.4L0 0Z" fill="#00636b"></path><path d="M202.8 0C206.4 20.4 210 40.8 195.9 52.5C181.8 64.2 150.2 67.2 139 80.2C127.8 93.3 137.2 116.5 132.6 132.6C128 148.6 109.5 157.5 92.3 159.8C75 162 59 157.7 43.9 163.7C28.7 169.8 14.4 186.3 0 202.8L0 0Z" fill="#007772"></path><path d="M135.2 0C137.6 13.6 140 27.2 130.6 35C121.2 42.8 100.1 44.8 92.7 53.5C85.2 62.2 91.4 77.7 88.4 88.4C85.3 99.1 73 105 61.5 106.5C50 108 39.4 105.1 29.2 109.1C19.1 113.2 9.6 124.2 0 135.2L0 0Z" fill="#008a73"></path><path d="M67.6 0C68.8 6.8 70 13.6 65.3 17.5C60.6 21.4 50.1 22.4 46.3 26.7C42.6 31.1 45.7 38.8 44.2 44.2C42.7 49.5 36.5 52.5 30.8 53.3C25 54 19.7 52.6 14.6 54.6C9.6 56.6 4.8 62.1 0 67.6L0 0Z" fill="#009473"></path></g></svg>